<?xml version="1.0" standalone="no"?><!DOCTYPE svg PUBLIC "-//W3C//DTD SVG 1.1//EN" "http://www.w3.org/Graphics/SVG/1.1/DTD/svg11.dtd"><svg t="1581389317229" class="icon" viewBox="0 0 1024 1024" version="1.1" xmlns="http://www.w3.org/2000/svg" p-id="793" xmlns:xlink="http://www.w3.org/1999/xlink" width="128" height="128"><defs><style type="text/css"></style></defs><path d="M511.208942 47.157107c-260.276565 0-464.275271 76.399169-464.275271 159.53956v83.717712c0 76.209181 211.035613 145.488492 464.275271 145.488492 260.269875 0 464.26925-62.350108 464.26925-145.488492V206.696667c0-76.210519-203.999375-159.53956-464.26925-159.53956z m0 481.190873c-260.276565 0-464.275271-62.351446-464.275271-145.48983V565.153429c0 76.209181 211.035613 145.48983 464.275271 145.48983 260.269875 0 464.26925-62.351446 464.26925-145.48983V382.85815c0 76.209181-203.999375 145.48983-464.26925 145.48983z m0 268.018566c-260.276565 0-464.275271-62.35546-464.275271-145.489829v186.279001c0 76.210519 211.035613 145.48983 464.275271 145.48983 260.269875 0 464.26925-62.35546 464.26925-145.48983V650.876717c0 83.13437-203.999375 145.48983-464.26925 145.489829z m0 6.385998" p-id="794"></path></svg>