<?xml version="1.0" standalone="no"?><!DOCTYPE svg PUBLIC "-//W3C//DTD SVG 1.1//EN" "http://www.w3.org/Graphics/SVG/1.1/DTD/svg11.dtd"><svg t="1581387437462" class="icon" viewBox="0 0 1365 1024" version="1.1" xmlns="http://www.w3.org/2000/svg" p-id="795" width="170.625" height="128" xmlns:xlink="http://www.w3.org/1999/xlink"><defs><style type="text/css"></style></defs><path d="M803.94634 684.452415c-5.156681 0-40.484901-36.096764-15.271708-102.736944a362.207229 362.207229 0 0 0 101.199857-241.942529c0-138.833709-96.043176-211.002446-197.069491-211.002446-106.182995 0-197.069491 71.896028-197.069491 211.002446a359.802431 359.802431 0 0 0 96.043176 241.942529 90.613787 90.613787 0 0 1-25.213193 102.736944c-111.141342 41.253445-237.554392 113.24864-237.554392 190.202181v25.783403c0 97.778598 186.954464 123.537209 363.967442 123.537209 171.856298 0 358.810762-20.428389 358.810762-123.537209v-25.783403c-5.131889-76.953541-136.70162-154.303751-247.842962-190.202181z" p-id="796"></path><path d="M1137.568701 499.233373c-5.156681 0-35.328221-10.313361-15.271708-71.896028a335.382573 335.382573 0 0 0 85.878565-226.37332c0-128.69389-80.771468-200.813043-181.971325-200.813043a164.245236 164.245236 0 0 0-161.741271 107.893625 292.195373 292.195373 0 0 1 101.199857 231.430834 454.134978 454.134978 0 0 1-105.984661 277.667417c85.928149 30.940084 217.49788 97.778598 252.875684 200.813043 131.396189-5.156681 252.875684-36.096764 252.875683-113.248639v-25.783403c4.784805-76.854374-116.669899-143.593722-227.811241-179.690486z m-909.856627 0c5.156681 0 35.328221-10.313361 15.271708-71.896028a335.382573 335.382573 0 0 1-85.977732-226.37332c5.156681-128.69389 85.928149-200.813043 181.971325-200.813043a164.245236 164.245236 0 0 1 161.741271 107.893625 292.195373 292.195373 0 0 0-101.199857 231.430834 453.688727 453.688727 0 0 0 106.182995 277.667417c-85.928149 30.940084-217.49788 97.778598-252.875684 200.813043-131.396189-5.156681-252.875684-36.096764-252.875683-113.248639v-25.783403c0.371876-76.854374 121.628246-143.593722 227.612907-179.690486z" p-id="797"></path></svg>