<?xml version="1.0" standalone="no"?><!DOCTYPE svg PUBLIC "-//W3C//DTD SVG 1.1//EN" "http://www.w3.org/Graphics/SVG/1.1/DTD/svg11.dtd"><svg t="1581386959501" class="icon" viewBox="0 0 1024 1024" version="1.1" xmlns="http://www.w3.org/2000/svg" p-id="1252" xmlns:xlink="http://www.w3.org/1999/xlink" width="128" height="128"><defs><style type="text/css"></style></defs><path d="M661.899636 121.064727a169.076364 169.076364 0 0 1 245.713455 6.423273 181.713455 181.713455 0 0 1-4.072727 246.993455l-4.445091 4.491636-399.755637 389.329454a46.545455 46.545455 0 0 1-67.723636-63.767272l2.769455-2.932364 399.755636-389.329454a88.622545 88.622545 0 0 0 4.165818-122.647273l-2.978909-3.118546a75.985455 75.985455 0 0 0-104.098909-2.955636l-3.351273 3.188364L162.909091 754.176V837.818182a23.272727 23.272727 0 0 0 20.549818 23.109818L186.181818 861.090909h696.203637a46.545455 46.545455 0 0 1 3.467636 92.974546l-3.490909 0.116363H186.181818a116.363636 116.363636 0 0 1-116.247273-111.313454L69.818182 837.818182v-83.642182a93.090909 93.090909 0 0 1 23.505454-61.858909l3.607273-3.84L661.899636 121.064727z" p-id="1253"></path></svg>