<?xml version="1.0" standalone="no"?><!DOCTYPE svg PUBLIC "-//W3C//DTD SVG 1.1//EN" "http://www.w3.org/Graphics/SVG/1.1/DTD/svg11.dtd"><svg t="1581389384628" class="icon" viewBox="0 0 1024 1024" version="1.1" xmlns="http://www.w3.org/2000/svg" p-id="1147" xmlns:xlink="http://www.w3.org/1999/xlink" width="128" height="128"><defs><style type="text/css"></style></defs><path d="M523.41 170.67h-22.83c-188.51 0-341.33 152.82-341.33 341.33v286.07c0 30.52 24.74 55.27 55.27 55.27h301.63c185.73 0 342.92-145.34 348.44-330.99 5.74-192.91-149.53-351.68-341.18-351.68z m78.27 423.11c0 15.26-12.37 27.63-27.63 27.63H361.36c-15.26 0-27.63-12.37-27.63-27.63s12.37-27.63 27.63-27.63h212.69c15.26-0.01 27.63 12.37 27.63 27.63z m60.96-135.92H361.36c-15.26 0-27.63-12.37-27.63-27.63s12.37-27.63 27.63-27.63h301.29c15.26 0 27.63 12.37 27.63 27.63s-12.38 27.63-27.64 27.63z" p-id="1148"></path></svg>