<?xml version="1.0" standalone="no"?><!DOCTYPE svg PUBLIC "-//W3C//DTD SVG 1.1//EN" "http://www.w3.org/Graphics/SVG/1.1/DTD/svg11.dtd"><svg t="1581389422374" class="icon" viewBox="0 0 1024 1024" version="1.1" xmlns="http://www.w3.org/2000/svg" p-id="1274" xmlns:xlink="http://www.w3.org/1999/xlink" width="128" height="128"><defs><style type="text/css"></style></defs><path d="M670.19 852.34c-24.45 0-50.53-3.21-78.33-9.6-96.61-22.19-173.3-78.8-229.32-125.64-62.52-52.29-132.62-117.97-178.5-208.74-24.27-48.02-35.55-93.81-35.48-144.03-4.36-84.8 54.81-140.17 99.78-174.49 33.02-25.23 76.49-24.12 108.15 2.77 29.49 25.05 58.71 53.9 86.83 85.74 26.99 30.56 26.72 81.98-0.62 117.06-1.99 2.55-4.09 5-6.21 7.43-1.16 1.35-2.33 2.68-3.45 4.06-24.93 30.47-24.93 30.47-4.11 60.37 47.83 68.7 104.18 111.96 172.27 132.21 5.73 1.69 6.89 0.85 9.67-2.07l3.18-3.3c7.58-7.87 14.72-15.3 21.35-23.05 18.91-22.13 44.47-35.21 71.99-36.81 26.99-1.47 53.42 8.2 74.24 27.51 20.58 19.11 41.6 39.81 62.48 61.53v0.01c39.46 41.07 42.03 91.2 7.06 137.53-46.21 61.22-105.84 91.51-180.98 91.51z" p-id="1275"></path></svg>