<?xml version="1.0" standalone="no"?><!DOCTYPE svg PUBLIC "-//W3C//DTD SVG 1.1//EN" "http://www.w3.org/Graphics/SVG/1.1/DTD/svg11.dtd"><svg t="1581389774496" class="icon" viewBox="0 0 1024 1024" version="1.1" xmlns="http://www.w3.org/2000/svg" p-id="843" xmlns:xlink="http://www.w3.org/1999/xlink" width="128" height="128"><defs><style type="text/css"></style></defs><path d="M874.471 205.868a77.672 77.672 0 0 1 77.672 77.672v517.816a77.672 77.672 0 0 1-77.672 77.672H471.144L293.172 995.666a25.89 25.89 0 0 1-40.08-21.67v-94.968H149.53a77.672 77.672 0 0 1-77.672-77.672V283.54a77.672 77.672 0 0 1 77.672-77.672H874.47z m0 77.672H149.53v517.816h181.236v76.818l117.208-76.818H874.47V283.54zM545.141 542.45v77.672H330.765v-77.672h214.376z m148.094-155.345v77.672h-362.47v-77.672h362.47z" p-id="844"></path></svg>