<?xml version="1.0" standalone="no"?><!DOCTYPE svg PUBLIC "-//W3C//DTD SVG 1.1//EN" "http://www.w3.org/Graphics/SVG/1.1/DTD/svg11.dtd"><svg t="1581390145373" class="icon" viewBox="0 0 1024 1024" version="1.1" xmlns="http://www.w3.org/2000/svg" p-id="840" xmlns:xlink="http://www.w3.org/1999/xlink" width="128" height="128"><defs><style type="text/css"></style></defs><path d="M861.090909 46.545455a139.636364 139.636364 0 0 1 139.543273 134.4L1000.727273 186.181818v651.636364a139.636364 139.636364 0 0 1-134.4 139.543273L861.090909 977.454545H209.454545a139.636364 139.636364 0 0 1-139.543272-134.4L69.818182 837.818182v-42.752a46.545455 46.545455 0 0 1 92.974545-3.490909l0.116364 3.490909V837.818182a46.545455 46.545455 0 0 0 43.054545 46.429091L209.454545 884.363636h651.636364a46.545455 46.545455 0 0 0 46.429091-43.054545L907.636364 837.818182V186.181818a46.545455 46.545455 0 0 0-43.054546-46.429091L861.090909 139.636364H209.454545a46.545455 46.545455 0 0 0-46.42909 43.054545L162.909091 186.181818v72.587637a46.545455 46.545455 0 0 1-92.974546 3.467636L69.818182 258.746182V186.181818a139.636364 139.636364 0 0 1 134.4-139.543273L209.454545 46.545455h651.636364zM386.676364 202.542545a93.090909 93.090909 0 0 1 128.628363 21.946182l71.726546 99.374546a93.090909 93.090909 0 0 1-20.829091 129.861818l-13.288727 9.634909 56.226909 75.147636 10.426181-7.563636 4.096-2.792727a93.114182 93.114182 0 0 1 125.998546 23.691636l78.173091 108.311273a69.818182 69.818182 0 0 1-10.426182 93.230545c-71.168 62.743273-161.978182 78.987636-266.775273 49.92-176.314182-48.872727-284.16-191.232-270.242909-376.576 7.819636-103.796364 42.519273-179.851636 106.286546-224.186182z m53.154909 76.427637l-4.002909 2.909091c-35.397818 26.996364-56.925091 76.404364-62.603637 151.831272-10.472727 139.566545 67.514182 242.501818 202.286546 279.877819 65.466182 18.152727 117.76 12.939636 160.512-14.917819l3.188363-2.210909-65.047272-90.135272-10.402909 7.563636a93.090909 93.090909 0 0 1-129.163637-19.618909l-56.226909-75.147636a93.090909 93.090909 0 0 1 18.757818-130.304l14.429091-10.472728-71.726545-99.374545zM162.909091 570.181818a46.545455 46.545455 0 0 1 3.490909 92.974546L162.909091 663.272727H69.818182a46.545455 46.545455 0 0 1-3.490909-92.974545L69.818182 570.181818h93.090909z m0-186.181818a46.545455 46.545455 0 0 1 3.490909 92.974545L162.909091 477.090909H69.818182a46.545455 46.545455 0 0 1-3.490909-92.974545L69.818182 384h93.090909z" p-id="841"></path></svg>